<?xml version="1.0" encoding="utf-8"?>
<!-- Generator: Adobe Illustrator 18.1.1, SVG Export Plug-In . SVG Version: 6.00 Build 0)  -->
<svg version="1.1" id="Layer_1" xmlns="http://www.w3.org/2000/svg" xmlns:xlink="http://www.w3.org/1999/xlink" x="0px" y="0px"
     viewBox="859 274.8 141 327" enable-background="new 859 274.8 141 327" xml:space="preserve" fill="#3489ff">
<path d="M1000,528c0,25.9-6.2,44.6-18.7,56.2c-12.5,11.7-32.8,17.6-60.7,17.6h-61.2v-35h65.4c11.8,0,20.6-2.7,26.2-8.1
    s8.5-14.1,8.5-25.9v-59.3c0-10.2-3-18.4-9.3-24.4c-6.2-6.1-14.5-9.1-24.8-9.1h-61.2V274.8h129v35H904v94.8h19.2
    c24,0,42.8,5.9,56.6,17.7c13.7,11.8,20.6,30.2,20.6,55.1V528H1000z"/>
<path d="M946.1,336.5h-13.4v52.4h-7.4v-52.4H912v-6.4h34v6.4H946.1z"/>
<path d="M990.6,388.9h-7.4v-27H966v27h-7.4v-58.8h7.4v25.6h17.3v-25.6h7.4V388.9z"/>
</svg>
